<svg xmlns="http://www.w3.org/2000/svg" width="300" viewBox="0 0 680 280">

  <rect x="0" y="0" width="680" height="280" fill="#0a0a0a"/>

  <polygon points="290,60 320,60 260,220 230,220" fill="#5cba47"/>

  <polygon points="60,60 100,60 160,200 140,200 100,100 100,100 60,200 40,200" fill="white"/>
  <polygon points="100,100 120,60 160,60 120,160" fill="white"/>

  <rect x="175" y="60" width="16" height="140" fill="white"/>
  <rect x="175" y="60" width="70" height="16" fill="white"/>
  <rect x="175" y="122" width="55" height="16" fill="white"/>
  <rect x="175" y="184" width="70" height="16" fill="white"/>

  <rect x="265" y="60" width="16" height="140" fill="white"/>
  <rect x="265" y="184" width="65" height="16" fill="white"/>

  <rect x="350" y="60" width="75" height="16" fill="white"/>
  <rect x="350" y="184" width="75" height="16" fill="white"/>
  <rect x="350" y="60" width="16" height="140" fill="white"/>
  <rect x="409" y="60" width="16" height="140" fill="white"/>

  <polygon points="445,60 470,60 530,200 505,200" fill="white"/>
  <polygon points="505,60 530,60 470,200 445,200" fill="white"/>

  <text x="340" y="248" text-anchor="middle" fill="#5cba47" font-family="sans-serif" font-size="13" letter-spacing="6" font-weight="500">RIDE WITHOUT LIMITS</text>

</svg>
